<svg width="24" height="26" viewBox="0 0 24 26" fill="none" xmlns="http://www.w3.org/2000/svg">
<path fill-rule="evenodd" clip-rule="evenodd" d="M14.3096 13.4486L12.9996 14.8028V8.66677C12.9996 8.06877 12.5526 7.58344 11.9996 7.58344C11.4476 7.58344 10.9996 8.06877 10.9996 8.66677V14.7183L9.7066 13.3175C9.3166 12.8939 8.6836 12.8939 8.2926 13.3175C7.9026 13.7411 7.9026 14.4258 8.2926 14.8494L11.2926 18.0983C11.3846 18.199 11.4956 18.2781 11.6176 18.3334C11.7396 18.3886 11.8696 18.4168 11.9996 18.4168C12.1286 18.4168 12.2566 18.3875 12.3766 18.3344C12.4376 18.3074 12.4856 18.2608 12.5386 18.2218C12.5896 18.186 12.6456 18.1644 12.6906 18.1178L15.6906 15.0162C16.0896 14.6034 16.1046 13.9177 15.7236 13.4844C15.3416 13.051 14.7096 13.0359 14.3096 13.4486ZM12 21.6667C7.589 21.6667 4 17.7786 4 13C4 8.22142 7.589 4.33333 12 4.33333C16.411 4.33333 20 8.22142 20 13C20 17.7786 16.411 21.6667 12 21.6667ZM12 2.16667C6.486 2.16667 2 7.0265 2 13C2 18.9735 6.486 23.8333 12 23.8333C17.514 23.8333 22 18.9735 22 13C22 7.0265 17.514 2.16667 12 2.16667Z" fill="#231F20"/>
<mask id="mask0" mask-type="alpha" maskUnits="userSpaceOnUse" x="2" y="2" width="20" height="22">
<path fill-rule="evenodd" clip-rule="evenodd" d="M14.3096 13.4486L12.9996 14.8028V8.66677C12.9996 8.06877 12.5526 7.58344 11.9996 7.58344C11.4476 7.58344 10.9996 8.06877 10.9996 8.66677V14.7183L9.7066 13.3175C9.3166 12.8939 8.6836 12.8939 8.2926 13.3175C7.9026 13.7411 7.9026 14.4258 8.2926 14.8494L11.2926 18.0983C11.3846 18.199 11.4956 18.2781 11.6176 18.3334C11.7396 18.3886 11.8696 18.4168 11.9996 18.4168C12.1286 18.4168 12.2566 18.3875 12.3766 18.3344C12.4376 18.3074 12.4856 18.2608 12.5386 18.2218C12.5896 18.186 12.6456 18.1644 12.6906 18.1178L15.6906 15.0162C16.0896 14.6034 16.1046 13.9177 15.7236 13.4844C15.3416 13.051 14.7096 13.0359 14.3096 13.4486ZM12 21.6667C7.589 21.6667 4 17.7786 4 13C4 8.22142 7.589 4.33333 12 4.33333C16.411 4.33333 20 8.22142 20 13C20 17.7786 16.411 21.6667 12 21.6667ZM12 2.16667C6.486 2.16667 2 7.0265 2 13C2 18.9735 6.486 23.8333 12 23.8333C17.514 23.8333 22 18.9735 22 13C22 7.0265 17.514 2.16667 12 2.16667Z" fill="white"/>
</mask>
<g mask="url(#mask0)">
<rect width="24" height="26" fill="#28292B"/>
</g>
</svg>
