<svg width="1089" height="2000" viewBox="0 0 1089 2000" fill="none" xmlns="http://www.w3.org/2000/svg">
<rect width="1" height="2000" transform="matrix(-1 0 0 1 121 0)" fill="#FAFAFA"/>
<rect width="1" height="2000" transform="matrix(-1 0 0 1 242 0)" fill="#FAFAFA"/>
<rect width="1" height="2000" transform="matrix(-1 0 0 1 363 0)" fill="#FAFAFA"/>
<rect width="1" height="2000" transform="matrix(-1 0 0 1 484 0)" fill="#FAFAFA"/>
<rect width="1" height="2000" transform="matrix(-1 0 0 1 605 0)" fill="#FAFAFA"/>
<rect width="1" height="2000" transform="matrix(-1 0 0 1 726 0)" fill="#FAFAFA"/>
<rect width="1" height="2000" transform="matrix(-1 0 0 1 847 0)" fill="#FAFAFA"/>
<rect width="1" height="2000" transform="matrix(-1 0 0 1 968 0)" fill="#FAFAFA"/>
<rect width="1" height="2000" transform="matrix(-1 0 0 1 1089 0)" fill="#FAFAFA"/>
</svg>
